<svg width="360" height="102" viewBox="0 0 360 102" fill="none" xmlns="http://www.w3.org/2000/svg">
<path d="M345.49 21.9609C345.11 21.8199 344.92 21.5379 344.92 21.397C344.73 21.6789 344.349 22.1018 345.49 21.9609Z" fill="#FFEDBE"/>
<path d="M313.183 89.6299C313.563 89.6299 313.943 89.6299 314.323 89.6299C313.943 89.7709 313.563 89.6299 313.183 89.6299Z" fill="#FFEDBE"/>
<path d="M357.272 54.2446C357.272 51.989 352.901 49.8743 356.702 47.6187C357.652 47.0548 356.512 46.6319 356.132 46.2089C355.562 45.5041 351.001 45.927 354.802 43.9533L354.611 43.6714C352.141 44.5172 349.67 43.2484 347.2 43.3894C346.82 43.3894 346.44 43.3894 346.06 43.3894C346.25 43.1074 346.82 43.1074 347.01 42.6845C347.2 42.1206 348.15 41.8387 348.91 41.5567C349.48 41.2748 351.381 41.8387 350.621 40.7108C350.241 40.1469 350.051 39.0191 348.15 39.1601C347.2 39.3011 346.25 39.1601 345.49 39.0192C345.3 38.8782 344.92 38.5962 344.539 38.8782C344.159 39.3011 344.729 39.3011 345.11 39.3011C344.919 39.583 344.919 40.006 344.729 40.006C343.969 40.1469 343.019 40.006 343.209 40.8518C343.019 40.4289 342.639 40.1469 342.259 39.865C341.499 39.1601 342.829 39.0191 342.829 38.7372C342.639 37.1864 345.68 37.7504 346.06 36.1996C346.44 34.6489 345.49 33.521 345.11 32.2522C344.919 31.1244 347.2 30.8425 346.06 29.8557C344.539 28.4459 343.209 26.8951 343.399 24.9215C343.399 24.0756 343.589 22.9478 342.069 22.5248C341.499 22.3839 340.929 21.9609 341.119 21.82C341.879 21.397 343.019 21.256 343.969 20.9741C344.729 20.8331 345.11 20.9741 345.11 21.538C345.49 20.8331 347.77 20.1282 345.87 19.0004C344.729 18.4365 344.729 16.7448 346.82 16.0399C346.63 15.8989 346.63 15.8989 346.44 15.758C345.68 14.7711 344.539 13.6433 344.539 12.6565C344.539 11.1057 342.069 10.5418 342.829 8.42715C343.399 6.73543 339.598 4.90272 336.748 4.05686C331.427 2.22416 325.536 3.21099 319.834 2.5061C317.934 2.22415 315.844 2.08321 313.943 2.36516C315.844 1.5193 317.934 1.9422 319.834 1.80122C320.975 1.66024 323.445 3.07002 323.255 1.23732C323.065 -0.0314707 321.545 1.37831 320.595 1.37831C317.364 1.23733 314.323 0.532454 310.903 0.814408C308.242 1.09636 305.202 1.3783 302.731 1.23732C300.261 1.09634 297.6 0.955385 295.129 0.814408C289.048 0.532454 282.967 1.94221 276.886 1.37831C275.556 1.23733 274.225 1.80124 273.085 1.37831C270.044 0.250492 266.814 2.36515 263.773 0.814408C263.773 0.814408 263.773 0.955393 263.583 0.955393C261.873 1.66028 260.162 1.09634 258.452 1.23732C255.792 1.3783 253.511 0.391469 250.661 1.37831C249.71 1.66026 248.95 1.94221 248 2.08319C248.38 1.94221 248.76 1.80124 248.95 1.37831C249.14 0.955376 248.19 0.532454 247.62 0.814408C246.29 1.51929 244.389 0.673414 243.439 1.94221C243.439 2.08318 243.439 2.0832 243.439 2.22418C242.109 2.0832 240.779 1.66024 239.448 1.09634C238.498 0.673405 237.168 0.673414 236.978 1.94221C235.077 2.22416 232.987 2.08319 231.087 2.08319C231.087 1.94221 231.277 1.80125 231.277 1.66028C230.706 1.09637 229.946 0.814408 228.996 0.814408C228.426 0.814408 227.856 0.955368 227.666 1.23732C226.526 0.814391 225.385 0.391486 223.675 0.955393C220.444 1.94223 216.454 2.36516 212.843 2.36516C208.472 2.36516 204.101 2.22416 199.73 1.94221C199.73 1.66025 199.54 1.23732 198.78 1.23732C198.59 1.3783 198.21 1.5193 198.02 1.66028C198.02 1.80125 198.02 1.80123 198.02 1.94221C195.929 1.80123 193.839 1.66027 191.749 1.51929C187.758 1.09636 183.387 1.37832 179.396 1.66028C177.686 1.80125 175.975 1.80123 174.075 1.94221C168.754 2.22416 163.433 2.6471 158.302 2.78808C153.361 3.07003 148.42 2.22418 143.479 2.92906C138.538 3.49297 133.597 4.19784 128.656 4.05686C120.864 3.91588 113.453 5.04371 105.661 5.04371C104.331 4.47981 102.811 4.47979 101.48 4.76174C96.3494 5.74858 91.0284 5.46664 85.8973 5.60761C78.2958 5.74859 70.6942 6.17154 63.2828 6.59447C53.7808 7.15838 44.2789 8.0042 34.777 8.85007C29.836 9.273 24.895 10.1189 19.954 10.5418C17.8636 10.6828 18.4337 12.2335 17.1034 12.5155C16.7234 12.6565 17.2935 12.7974 17.4835 12.7974C20.9042 13.6433 17.8636 13.6433 17.1034 13.9252C15.7732 14.3482 14.2529 14.9121 12.9226 15.0531C10.8322 15.1941 11.7824 15.8989 11.7824 16.6038C14.4429 16.3218 10.6421 17.3087 12.1625 17.5907C16.3433 18.2955 12.5425 19.5643 11.9724 20.1282C11.4023 20.6921 11.0222 21.2561 11.0222 21.82C11.0222 23.5117 9.31188 23.7936 7.79157 23.7936C6.84138 23.7936 6.65134 23.9346 5.89119 24.2166C2.28046 25.7673 2.85057 28.5868 1.90038 30.8425C1.14023 32.9571 4.18084 35.0718 2.28046 37.0454C0 39.1601 1.71034 41.4157 0.570115 43.5304C0.380077 43.8123 -0.190038 45.3631 1.90038 44.5172C2.09042 44.5172 2.85057 45.2221 3.23065 45.645C3.23065 45.645 2.85057 45.927 2.66054 45.927C2.4705 46.068 1.52031 45.5041 1.90038 46.2089C2.09042 46.4909 2.4705 46.7729 3.04061 46.9138C3.61073 47.0548 3.61073 46.7729 3.61073 46.4909C3.61073 45.3631 4.56092 46.068 5.32107 46.068C5.32107 44.7992 3.61073 44.5172 2.66054 43.6714C2.09042 43.1075 1.71034 42.5435 2.4705 42.1206C3.23065 41.6977 3.80077 42.4026 3.9908 42.6845C4.56092 43.3894 5.32107 43.8123 6.08123 44.0943C6.65134 44.3762 7.79157 44.6582 7.41149 45.3631C6.84138 46.209 6.08123 45.2221 5.32107 45.5041V45.645C5.32107 45.786 5.32107 45.786 5.32107 45.927C7.60153 46.9139 6.65134 49.3105 9.12184 50.1563C11.4023 51.0022 10.6421 51.848 8.9318 52.6939C7.98161 53.1168 6.65134 53.6807 8.55172 54.1037C4.75096 53.9627 5.89119 56.9232 3.9908 57.9101C5.32107 59.1788 4.56092 61.9984 7.60153 61.7164C10.072 61.4344 9.12184 61.8574 8.55172 62.5623C8.36168 62.7032 8.36168 62.9852 8.36168 62.9852C8.17165 62.8443 7.98161 62.8443 7.79157 62.9852C7.03142 63.1262 6.08123 63.4081 5.89119 64.113C5.89119 64.395 5.89119 64.8179 6.65134 64.6769C7.60153 64.5359 8.17165 64.113 8.55172 63.2672C8.74176 63.2672 8.9318 63.4081 9.31188 63.2672C10.2621 63.2672 10.072 63.8311 10.072 64.254C10.072 64.8179 9.50191 65.0999 8.9318 64.9589C5.51111 64.536 4.75096 65.8048 5.13103 67.7784C3.9908 67.7784 3.42069 68.2014 3.23065 69.0472C2.66054 71.0209 4.37088 71.1619 6.4613 70.8799C7.79157 70.7389 7.98161 72.0077 9.12184 71.5848C8.9318 71.8667 8.55172 72.0077 8.36168 72.2897C7.79157 72.9946 7.22146 73.1355 6.4613 72.2897C5.89119 71.7258 4.75096 72.1487 4.18084 72.4307C1.14023 74.2634 1.33027 78.6337 4.56092 80.4664C5.13103 80.7483 5.89119 81.0303 6.65134 81.3122C7.98161 82.0171 6.84138 83.2859 7.41149 84.1318C7.41149 84.1318 6.4613 84.6957 6.27126 84.5547C3.9908 83.2859 4.18084 84.6957 3.80077 85.5415C3.80077 85.5415 3.80077 85.5415 3.61073 85.5415C3.42069 85.5415 3.42069 85.4005 3.23065 85.4005C3.23065 85.5415 3.23065 85.5415 3.23065 85.6825C3.04061 85.8234 3.23065 86.1054 3.42069 86.3874C4.18084 87.3742 5.89119 87.6562 6.84138 88.3611C7.41149 88.643 8.17165 88.925 7.41149 89.4889C6.84138 90.0528 6.4613 89.3479 5.89119 89.2069C5.51111 89.0659 4.941 88.925 4.56092 88.784C3.42069 87.9381 1.33027 87.6562 0.950191 86.2464C0.950191 86.1054 0.570115 86.1054 0.380077 85.9644C0.190038 86.2464 0 86.5284 0 86.6693C0 88.502 2.66054 88.3611 3.9908 89.066C4.75096 89.9118 5.32107 90.6167 5.70115 91.6035C6.27126 93.4362 9.31188 94.2821 11.5923 95.2689C22.9946 99.9212 35.7272 101.19 48.6498 101.472C64.2329 101.754 80.0061 101.049 95.5893 100.344C102.621 100.062 109.842 100.062 116.874 99.7802C130.746 99.0753 144.619 98.0885 158.302 97.3836C166.854 96.9606 175.405 97.2426 184.147 97.1016C196.88 96.8196 209.802 95.9738 222.535 95.6918C231.657 95.4099 240.779 95.4099 250.09 96.2557C267.004 97.8065 284.107 99.7802 301.211 98.5114C304.441 98.2294 307.862 98.0884 310.333 96.3967C310.713 96.1148 311.093 95.9738 310.903 95.5508C310.713 95.4099 310.142 95.4099 309.952 95.4099C307.102 95.8328 304.251 95.1279 301.781 95.9738C305.011 93.4362 307.292 89.9118 312.993 89.7708C312.233 89.7708 311.283 89.7708 310.142 89.6299C311.663 89.2069 313.183 89.4889 314.513 88.925C315.274 88.643 315.844 88.502 315.083 87.7971C314.323 86.9513 314.323 86.9513 315.654 86.9513C317.554 86.9513 317.744 85.6825 318.884 85.1186C318.124 84.5547 318.504 83.2859 316.794 83.2859C316.414 83.2859 316.034 83.2859 316.414 82.8629C317.364 81.3122 314.323 81.0303 314.323 79.9025C313.753 80.1844 313.183 80.6073 312.803 81.0303C311.853 79.0566 315.083 79.1975 315.464 79.3385C318.124 80.1844 320.024 78.9156 322.305 78.6336C333.137 77.3648 343.589 75.9551 353.471 72.2897C355.182 71.5848 356.132 71.0209 355.562 69.6111C355.182 68.7653 354.992 67.7784 354.802 66.7916C355.942 66.9326 357.272 65.0999 358.412 66.9326C358.412 66.7916 358.412 66.5096 358.602 66.3687C360.503 64.254 358.982 61.8574 359.933 59.6017C360.503 57.7691 357.272 55.5134 357.272 54.2446ZM343.589 29.5737C343.589 29.5737 343.589 29.4327 343.589 29.5737C343.779 29.5737 343.779 29.5737 343.779 29.7147C343.589 29.7147 343.589 29.7147 343.399 29.7147C343.399 29.7147 343.399 29.5737 343.589 29.5737ZM7.03142 42.4026C7.03142 42.4026 7.03142 42.2616 7.03142 42.4026C7.22146 42.2616 7.41149 42.2616 7.60153 42.2616C7.41149 42.2616 7.03142 42.4026 7.03142 42.4026ZM7.98161 40.2879C7.79157 40.4289 7.22146 40.4289 6.84138 40.4289C5.13103 39.724 5.51111 38.1733 4.75096 37.0454C4.75096 36.9045 4.75096 36.7635 4.75096 36.6225C5.13103 36.7635 5.51111 36.7635 5.51111 36.7635C5.13103 38.3143 9.50191 38.3143 7.98161 40.2879ZM7.79157 55.0905H7.60153V54.9495C7.79157 54.8086 7.79157 54.9495 7.79157 55.0905C7.98161 54.9495 7.79157 55.0905 7.79157 55.0905ZM10.072 52.9759C9.88199 52.9759 9.69195 52.9759 9.50191 52.8349C9.69195 52.8349 9.88199 52.6939 10.072 52.6939C10.072 52.8349 10.072 52.9759 10.072 52.9759ZM3.9908 76.378C3.9908 76.2371 3.9908 76.0961 3.9908 75.9551C4.75096 76.66 5.32107 76.519 5.89119 76.237C5.51111 76.66 4.941 77.2239 3.9908 76.378ZM7.41149 75.9551C7.22146 75.8141 7.03142 75.8141 6.84138 75.8141C7.03142 75.8141 7.22146 75.6731 7.41149 75.6731C7.60153 75.6731 7.60153 75.8141 7.98161 76.0961C7.60153 75.9551 7.41149 75.9551 7.41149 75.9551ZM11.0222 52.271C11.2123 52.271 11.2123 52.412 11.4023 52.412C11.2123 52.5529 11.0222 52.5529 11.0222 52.6939C11.0222 52.5529 10.8322 52.5529 10.8322 52.412C10.8322 52.271 11.0222 52.13 11.0222 52.271ZM5.32107 67.4965C5.51111 67.6374 6.4613 67.4965 5.89119 68.0604C5.70115 68.2013 5.32107 68.2013 4.941 68.2013C4.941 67.9194 5.13103 67.6374 5.32107 67.4965ZM11.0222 70.8799L10.8322 70.739L11.0222 70.598L11.2123 70.739C11.2123 70.8799 11.2123 70.8799 11.0222 70.8799ZM10.8322 69.7521C9.31188 69.8931 7.60153 70.034 5.89119 70.175C5.32107 70.034 4.18084 69.8931 4.18084 69.8931C4.18084 69.1882 5.13103 69.1882 6.08123 69.1882C7.60153 69.0472 9.31188 70.316 10.6421 69.0472C10.6421 69.0472 11.4023 69.3292 11.7824 69.6111C11.4023 69.6111 11.2123 69.7521 10.8322 69.7521ZM14.2529 26.3312H14.4429H14.2529ZM87.4176 99.7802C87.2276 99.6392 87.2276 99.6392 87.0375 99.4982C87.2276 99.4982 87.4176 99.4982 87.6077 99.4982C87.7977 99.4982 87.7977 99.4982 87.9877 99.6392C87.7977 99.6392 87.6077 99.6392 87.4176 99.7802ZM104.711 4.90273C104.711 4.76175 104.711 4.76173 104.711 4.62076C105.091 4.62076 105.471 4.62076 105.851 4.62076C105.661 5.32564 105.091 4.90273 104.711 4.90273ZM120.294 98.3704C120.104 98.3704 119.724 98.2294 119.534 98.2294C119.914 98.2294 120.294 98.2294 120.674 98.0885C120.864 98.0885 121.054 98.2294 121.244 98.2294C121.054 98.3704 120.674 98.3704 120.294 98.3704ZM125.805 97.9475C127.326 97.9475 128.086 97.8065 129.036 97.8065V97.9475C128.276 97.9475 127.326 97.9475 125.805 97.9475ZM141.959 96.9606C142.149 96.9606 142.339 96.9606 142.339 96.9606C142.339 96.9606 142.149 96.9606 141.959 96.9606ZM156.402 95.9738C156.782 95.9738 156.972 95.9738 157.352 96.1148C156.972 96.2558 156.592 96.2558 156.402 95.9738ZM160.582 2.64709L160.772 2.5061L160.582 2.64709ZM210.372 94.705C210.562 94.705 210.752 94.564 210.752 94.564C210.562 94.705 210.372 94.705 210.372 94.705ZM247.43 1.80122C246.67 1.9422 245.91 1.94221 244.959 1.94221C245.72 1.66025 246.67 1.80122 247.43 1.80122ZM289.238 97.5246C289.048 97.5246 288.668 97.3836 288.478 97.3836C288.668 97.3836 288.668 97.2426 288.858 97.2426C289.048 97.2426 289.428 97.2426 289.808 97.3836C289.428 97.3836 289.428 97.5246 289.238 97.5246ZM307.102 96.6787C307.292 96.6787 307.672 96.8196 307.862 96.9606C307.482 97.1016 307.102 97.1016 306.532 97.2426C306.342 97.1016 306.152 97.1016 306.152 96.9606C306.342 96.9606 306.722 96.6787 307.102 96.6787ZM303.871 96.6787C304.251 96.6787 304.821 96.5377 304.821 96.9606C304.821 97.3836 304.251 97.2426 303.871 97.3836C300.641 98.0885 297.41 97.6655 294.179 97.9475C293.799 97.9475 293.229 97.8065 293.419 97.5246C293.989 96.8197 295.129 97.3836 295.7 97.2426C298.74 96.9606 301.211 96.8197 303.871 96.6787ZM312.613 1.51929C312.613 1.66027 312.803 1.66024 312.803 1.80122L312.613 1.94221C312.613 1.80123 312.423 1.80125 312.423 1.66028C312.423 1.66028 312.423 1.66027 312.613 1.51929ZM309.382 80.0434L309.192 79.9025L309.382 79.7615C309.382 79.7615 309.572 79.7615 309.572 79.9025L309.382 80.0434ZM312.423 81.4532C312.043 81.8761 310.903 82.0171 310.142 82.1581C310.903 81.8761 312.043 81.4532 312.613 81.1712C312.613 81.3122 312.423 81.3122 312.423 81.4532ZM342.259 72.4307C342.639 72.1487 343.209 72.0077 343.209 71.5848C343.209 72.0077 343.209 72.1487 343.589 72.1487C343.019 72.1487 342.639 72.2897 342.259 72.4307ZM336.938 73.1355C337.698 72.7126 338.838 72.8536 339.979 72.8536C334.657 74.1224 329.336 75.2502 324.775 75.2502C327.816 74.5453 332.757 75.2502 336.938 73.1355ZM344.539 71.7258C344.539 70.8799 343.969 71.1619 343.399 71.3029C343.969 71.1619 344.349 71.0209 344.92 70.739C344.729 71.1619 344.729 71.4438 344.539 71.7258ZM353.471 70.8799C353.281 70.8799 353.091 70.739 352.901 70.739C353.281 70.316 353.661 70.034 354.041 69.6111C354.041 69.7521 354.231 69.8931 354.231 70.0341C354.611 70.457 354.041 70.7389 353.471 70.8799ZM359.172 60.7296C358.602 61.1525 358.222 60.5886 358.602 60.0247C358.792 59.4608 358.982 58.7559 359.172 58.192C359.172 59.1788 360.123 60.1657 359.172 60.7296Z" fill="#FFEDBE"/>
<path d="M11.4018 12.9383C11.5918 12.7973 12.7321 13.2202 12.1619 12.5153C11.5918 11.9514 10.8317 11.2465 10.0715 10.9646C9.69145 10.8236 9.50141 11.3875 9.50141 11.8105C9.88149 12.9383 9.12134 13.2202 7.79107 13.0792C7.22095 13.0792 6.65084 12.0924 5.89068 13.0792C5.32057 13.9251 4.56042 14.63 5.32057 15.6168C7.03091 18.2954 9.31137 17.7315 11.7819 16.3217C8.74126 15.0529 8.74126 13.9251 11.4018 12.9383Z" fill="#FFEDBE"/>
<path d="M3.23054 82.8628C3.42057 82.5808 3.0405 82.2989 2.47038 82.4398C2.09031 82.7218 1.14012 82.7218 1.52019 83.2857C1.71023 83.7086 2.09031 83.9906 2.47038 84.2725C2.85046 83.8496 3.0405 83.4267 3.23054 82.8628Z" fill="#FFEDBE"/>
<path d="M314.703 94.282C313.753 94.7049 312.423 94.564 311.852 95.4098C311.662 95.8328 312.233 95.8327 312.613 95.8327C313.753 95.6918 314.893 95.5508 315.463 94.7049C315.463 94.282 315.083 94.141 314.703 94.282Z" fill="#FFEDBE"/>
<path d="M317.744 88.784C316.794 88.643 316.034 89.066 315.464 89.4889C315.844 89.6299 316.224 89.9118 316.414 89.7709C316.984 89.6299 317.554 89.3479 318.124 89.2069C318.504 88.784 317.934 88.784 317.744 88.784Z" fill="#FFEDBE"/>
<path d="M316.794 87.6562C316.794 87.7972 317.174 88.0791 317.174 88.0791C317.554 88.0791 317.744 87.9381 318.314 87.6562C317.934 87.3742 317.554 87.0923 317.364 86.9513C317.174 87.2332 316.984 87.3742 316.794 87.6562Z" fill="#FFEDBE"/>
<path d="M346.63 15.053C346.44 15.194 346.25 15.3349 346.25 15.4759C346.44 15.6169 346.44 15.6169 346.63 15.7579C346.82 15.4759 347.2 15.3349 346.63 15.053Z" fill="#FFEDBE"/>
<path d="M7.41172 71.444L7.22168 71.5849C7.22168 71.7259 7.41172 71.7259 7.41172 71.8669L7.60176 71.7259C7.60176 71.5849 7.41172 71.444 7.41172 71.444Z" fill="#FFEDBE"/>
</svg>
