<svg width="521" height="95" viewBox="0 0 521 95" fill="none" xmlns="http://www.w3.org/2000/svg">
<path d="M499.766 20.5412C499.216 20.4106 498.941 20.1492 498.941 20.0186C498.667 20.2799 498.117 20.6719 499.766 20.5412Z" fill="#FFEDBE"/>
<path d="M453.037 83.2644C453.587 83.2644 454.137 83.2644 454.686 83.2644C454.137 83.3951 453.587 83.2644 453.037 83.2644Z" fill="#FFEDBE"/>
<path d="M516.809 50.4653C516.809 48.3745 510.486 46.4144 515.984 44.3236C517.358 43.8009 515.709 43.4089 515.159 43.0169C514.335 42.3635 507.738 42.7556 513.235 40.9262L512.96 40.6648C509.387 41.4488 505.814 40.2728 502.24 40.4034C501.69 40.4034 501.141 40.4034 500.591 40.4034C500.866 40.1421 501.69 40.1421 501.965 39.7501C502.24 39.2274 503.614 38.966 504.714 38.7047C505.539 38.4433 508.287 38.966 507.188 37.9206C506.638 37.398 506.363 36.3526 503.615 36.4832C502.24 36.6139 500.866 36.4833 499.766 36.3526C499.491 36.2219 498.942 35.9606 498.392 36.2219C497.842 36.6139 498.667 36.6139 499.216 36.6139C498.942 36.8753 498.942 37.2673 498.667 37.2673C497.567 37.398 496.193 37.2673 496.468 38.0513C496.193 37.6593 495.643 37.3979 495.093 37.1366C493.994 36.4832 495.918 36.3526 495.918 36.0912C495.643 34.6538 500.041 35.1765 500.591 33.7391C501.141 32.3017 499.766 31.2563 499.216 30.0802C498.942 29.0349 502.24 28.7735 500.591 27.8588C498.392 26.5521 496.468 25.1147 496.743 23.2853C496.743 22.5012 497.017 21.4558 494.818 21.0638C493.994 20.9331 493.169 20.5411 493.444 20.4104C494.544 20.0184 496.193 19.8877 497.567 19.6264C498.667 19.4957 499.216 19.6264 499.216 20.1491C499.766 19.4957 503.065 18.8423 500.316 17.797C498.667 17.2743 498.667 15.7062 501.69 15.0528C501.415 14.9221 501.415 14.9222 501.141 14.7915C500.041 13.8768 498.392 12.8314 498.392 11.9167C498.392 10.4792 494.818 9.95655 495.918 7.99645C496.743 6.42837 491.245 4.72961 487.122 3.94557C479.425 2.24682 470.904 3.16152 462.658 2.50816C459.909 2.24681 456.885 2.11617 454.137 2.37752C456.885 1.59348 459.909 1.98546 462.658 1.85479C464.307 1.72412 467.88 3.03086 467.605 1.33211C467.331 0.156045 465.132 1.46279 463.757 1.46279C459.084 1.33211 454.686 0.678754 449.738 0.940101C445.89 1.20145 441.492 1.46278 437.919 1.33211C434.345 1.20143 430.497 1.07077 426.924 0.940101C418.128 0.678754 409.331 1.98548 400.535 1.46279C398.611 1.33211 396.687 1.85481 395.038 1.46279C390.64 0.4174 385.967 2.37751 381.569 0.940101C381.569 0.940101 381.569 1.07078 381.294 1.07078C378.82 1.72415 376.346 1.20143 373.872 1.33211C370.024 1.46278 366.725 0.548073 362.602 1.46279C361.228 1.72413 360.128 1.98548 358.754 2.11615C359.304 1.98548 359.853 1.85481 360.128 1.46279C360.403 1.07077 359.029 0.678754 358.204 0.940101C356.28 1.59347 353.531 0.809412 352.157 1.98547C352.157 2.11615 352.157 2.11616 352.157 2.24683C350.233 2.11616 348.309 1.72412 346.384 1.20142C345.01 0.809404 343.086 0.809412 342.811 1.98547C340.062 2.24682 337.039 2.11615 334.29 2.11615C334.29 1.98548 334.565 1.85482 334.565 1.72415C333.74 1.20146 332.641 0.940101 331.266 0.940101C330.442 0.940101 329.617 1.07076 329.342 1.33211C327.693 0.940085 326.044 0.548089 323.57 1.07078C318.897 1.9855 313.124 2.37752 307.902 2.37752C301.579 2.37752 295.257 2.24682 288.935 1.98547C288.935 1.72413 288.66 1.33211 287.561 1.33211C287.286 1.46278 286.736 1.59348 286.461 1.72415C286.461 1.85482 286.461 1.8548 286.461 1.98547C283.437 1.8548 280.414 1.72414 277.39 1.59347C271.618 1.20145 265.296 1.4628 259.523 1.72415C257.049 1.85482 254.575 1.8548 251.827 1.98547C244.13 2.24682 236.433 2.63885 229.012 2.76952C221.865 3.03087 214.718 2.24683 207.571 2.9002C200.424 3.42289 193.278 4.07625 186.131 3.94557C174.861 3.8149 164.141 4.8603 152.871 4.8603C150.946 4.33761 148.747 4.33759 146.823 4.59894C139.402 5.51365 131.705 5.25231 124.283 5.38299C113.288 5.51366 102.293 5.9057 91.5728 6.29772C77.829 6.82041 64.0851 7.60442 50.3412 8.38846C43.1944 8.78048 36.0476 9.56454 28.9007 9.95655C25.8771 10.0872 26.7017 11.5246 24.7776 11.786C24.2278 11.9166 25.0524 12.0473 25.3273 12.0473C30.2751 12.8314 25.8771 12.8314 24.7776 13.0927C22.8534 13.4847 20.6544 14.0074 18.7303 14.1381C15.7066 14.2688 17.081 14.9221 17.081 15.5755C20.9293 15.3141 15.4317 16.2289 17.6307 16.4902C23.6781 17.1436 18.1805 18.3196 17.3559 18.8423C16.5312 19.365 15.9815 19.8877 15.9815 20.4104C15.9815 21.9785 13.5076 22.2398 11.3086 22.2398C9.93417 22.2398 9.65929 22.3705 8.55978 22.6319C3.33711 24.0693 4.16174 26.6827 2.78735 28.7735C1.68784 30.7336 6.08588 32.6937 3.33711 34.5231C0.0385742 36.4832 2.51247 38.574 0.863207 40.5341C0.58833 40.7955 -0.236304 42.2329 2.78735 41.4488C3.06223 41.4488 4.16174 42.1022 4.71149 42.4942C4.71149 42.4942 4.16174 42.7556 3.88686 42.7556C3.61198 42.8863 2.2376 42.3635 2.78735 43.0169C3.06223 43.2782 3.61198 43.5396 4.43662 43.6703C5.26125 43.8009 5.26125 43.5396 5.26125 43.2783C5.26125 42.2329 6.63564 42.8863 7.73515 42.8863C7.73515 41.7102 5.26125 41.4488 3.88686 40.6648C3.06223 40.1421 2.51247 39.6194 3.61198 39.2274C4.7115 38.8354 5.53613 39.4887 5.81101 39.7501C6.63564 40.4034 7.73515 40.7955 8.83466 41.0568C9.65929 41.3181 11.3086 41.5795 10.7588 42.2329C9.93417 43.0169 8.83466 42.1022 7.73515 42.3635V42.4942C7.73515 42.6249 7.73515 42.6249 7.73515 42.7556C11.0337 43.6703 9.65929 45.8917 13.2327 46.6758C16.5312 47.4598 15.4317 48.2438 12.9578 49.0279C11.5834 49.4199 9.65929 49.9426 12.4081 50.3346C6.91052 50.2039 8.55978 52.9481 5.81101 53.8628C7.73515 55.0389 6.63564 57.6523 11.0337 57.391C14.6071 57.1296 13.2327 57.5217 12.4081 58.175C12.1332 58.3057 12.1332 58.5671 12.1332 58.5671C11.8583 58.4364 11.5834 58.4364 11.3086 58.5671C10.209 58.6977 8.83466 58.9591 8.55978 59.6124C8.55978 59.8738 8.55978 60.2658 9.65929 60.1351C11.0337 60.0044 11.8583 59.6124 12.4081 58.8284C12.6829 58.8284 12.9578 58.9591 13.5076 58.8284C14.882 58.8284 14.6071 59.3511 14.6071 59.7431C14.6071 60.2658 13.7825 60.5272 12.9578 60.3965C8.01003 60.0045 6.91052 61.1805 7.46027 63.0099C5.81101 63.0099 4.98637 63.402 4.71149 64.186C3.88686 66.0154 6.36076 66.1461 9.38442 65.8847C11.3086 65.7541 11.5834 66.9301 13.2327 66.5381C12.9578 66.7995 12.4081 66.9301 12.1332 67.1915C11.3086 67.8448 10.4839 67.9755 9.38442 67.1915C8.55978 66.6688 6.91052 67.0608 6.08588 67.3222C1.68784 69.0209 1.96272 73.0718 6.63564 74.7706C7.46027 75.0319 8.55978 75.2933 9.65929 75.5546C11.5834 76.208 9.93417 77.384 10.7588 78.1681C10.7588 78.1681 9.38442 78.6907 9.10954 78.5601C5.81101 77.384 6.08588 78.6908 5.53613 79.4748C5.53613 79.4748 5.53613 79.4748 5.26125 79.4748C4.98637 79.4748 4.98637 79.3441 4.71149 79.3441C4.71149 79.4748 4.71149 79.4748 4.71149 79.6054C4.43662 79.7361 4.7115 79.9975 4.98637 80.2588C6.08588 81.1735 8.55978 81.4349 9.93417 82.0883C10.7588 82.3496 11.8583 82.6109 10.7588 83.1336C9.93417 83.6563 9.38442 83.003 8.55978 82.8723C8.01003 82.7416 7.18539 82.6109 6.63564 82.4803C4.98637 81.6962 1.96272 81.4349 1.41296 80.1282C1.41296 79.9975 0.863207 79.9975 0.58833 79.8668C0.313452 80.1282 0.0385742 80.3895 0.0385742 80.5202C0.0385742 82.2189 3.88686 82.0883 5.81101 82.7416C6.91052 83.5257 7.73515 84.179 8.2849 85.0937C9.10954 86.7925 13.5076 87.5765 16.8061 88.4912C33.2988 92.8035 51.7156 93.9795 70.4073 94.2409C92.9472 94.5022 115.762 93.8489 138.302 93.1955C148.473 92.9342 158.918 92.9341 169.088 92.6728C189.154 92.0194 209.22 91.1047 229.012 90.4513C241.381 90.0593 253.751 90.3207 266.395 90.19C284.812 89.9286 303.504 89.1446 321.92 88.8833C335.114 88.6219 348.309 88.6219 361.778 89.4059C386.242 90.8433 410.981 92.6728 435.72 91.4967C440.393 91.2354 445.34 91.1047 448.914 89.5366C449.464 89.2753 450.013 89.1446 449.738 88.7526C449.464 88.6219 448.639 88.6219 448.364 88.6219C444.241 89.014 440.118 88.3606 436.544 89.1446C441.217 86.7925 444.516 83.5257 452.762 83.395C451.663 83.395 450.288 83.395 448.639 83.2643C450.838 82.8723 453.037 83.1336 454.961 82.611C456.061 82.3496 456.885 82.2189 455.786 81.5655C454.686 80.7815 454.686 80.7815 456.61 80.7815C459.359 80.7815 459.634 79.6055 461.283 79.0828C460.184 78.5601 460.734 77.384 458.26 77.384C457.71 77.384 457.16 77.384 457.71 76.992C459.084 75.5546 454.686 75.2933 454.686 74.2479C453.862 74.5092 453.037 74.9012 452.487 75.2932C451.113 73.4638 455.786 73.5945 456.336 73.7251C460.184 74.5092 462.933 73.3331 466.231 73.0718C481.899 71.8957 497.017 70.589 511.311 67.1915C513.785 66.5381 515.159 66.0154 514.335 64.7087C513.785 63.9246 513.51 63.0099 513.235 62.0952C514.884 62.2259 516.809 60.5271 518.458 62.2259C518.458 62.0952 518.458 61.8339 518.733 61.7032C521.482 59.7431 519.283 57.5216 520.657 55.4309C521.482 53.7321 516.809 51.6414 516.809 50.4653ZM497.017 27.5975C497.017 27.5975 497.017 27.4668 497.017 27.5975C497.292 27.5975 497.292 27.5975 497.292 27.7281C497.017 27.7281 497.017 27.7281 496.743 27.7281C496.743 27.7281 496.743 27.5975 497.017 27.5975ZM10.209 39.4887C10.209 39.4887 10.209 39.3581 10.209 39.4887C10.4839 39.3581 10.7588 39.3581 11.0337 39.3581C10.7588 39.3581 10.209 39.4887 10.209 39.4887ZM11.5834 37.5286C11.3086 37.6593 10.4839 37.6593 9.93417 37.6593C7.46027 37.006 8.01003 35.5685 6.91052 34.5231C6.91052 34.3925 6.91052 34.2618 6.91052 34.1311C7.46027 34.2618 8.01003 34.2618 8.01003 34.2618C7.46027 35.6992 13.7825 35.6992 11.5834 37.5286ZM11.3086 51.2493H11.0337V51.1187C11.3086 50.988 11.3086 51.1187 11.3086 51.2493C11.5834 51.1187 11.3086 51.2493 11.3086 51.2493ZM14.6071 49.2892C14.3322 49.2892 14.0573 49.2892 13.7825 49.1586C14.0573 49.1586 14.3322 49.0279 14.6071 49.0279C14.6071 49.1586 14.6071 49.2892 14.6071 49.2892ZM5.81101 70.981C5.81101 70.8504 5.81101 70.7197 5.81101 70.589C6.91052 71.2424 7.73515 71.1117 8.55978 70.8503C8.01003 71.2424 7.18539 71.7651 5.81101 70.981ZM10.7588 70.589C10.4839 70.4583 10.209 70.4583 9.93417 70.4583C10.209 70.4583 10.4839 70.3277 10.7588 70.3277C11.0337 70.3277 11.0337 70.4583 11.5834 70.7197C11.0337 70.589 10.7588 70.589 10.7588 70.589ZM15.9815 48.6359C16.2564 48.6359 16.2564 48.7666 16.5312 48.7666C16.2564 48.8972 15.9815 48.8972 15.9815 49.0279C15.9815 48.8972 15.7066 48.8972 15.7066 48.7666C15.7066 48.6359 15.9815 48.5052 15.9815 48.6359ZM7.73515 62.7486C8.01003 62.8793 9.38442 62.7486 8.55978 63.2713C8.28491 63.4019 7.73515 63.402 7.18539 63.402C7.18539 63.1406 7.46027 62.8793 7.73515 62.7486ZM15.9815 65.8847L15.7066 65.7541L15.9815 65.6234L16.2564 65.7541C16.2564 65.8848 16.2564 65.8847 15.9815 65.8847ZM15.7066 64.8394C13.5076 64.97 11.0337 65.1007 8.55978 65.2314C7.73515 65.1007 6.08588 64.97 6.08588 64.97C6.08588 64.3167 7.46027 64.3167 8.83466 64.3167C11.0337 64.186 13.5076 65.3621 15.4317 64.186C15.4317 64.186 16.5312 64.4473 17.081 64.7087C16.5312 64.7087 16.2564 64.8394 15.7066 64.8394ZM20.6544 24.592H20.9293H20.6544ZM126.482 92.6728C126.207 92.5421 126.207 92.5421 125.933 92.4115C126.207 92.4115 126.482 92.4115 126.757 92.4115C127.032 92.4115 127.032 92.4115 127.307 92.5421C127.032 92.5421 126.757 92.5421 126.482 92.6728ZM151.496 4.72962C151.496 4.59895 151.496 4.59893 151.496 4.46826C152.046 4.46826 152.596 4.46826 153.145 4.46826C152.871 5.12162 152.046 4.72962 151.496 4.72962ZM174.036 91.366C173.761 91.366 173.212 91.2354 172.937 91.2354C173.486 91.2354 174.036 91.2354 174.586 91.1047C174.861 91.1047 175.136 91.2354 175.411 91.2354C175.136 91.3661 174.586 91.366 174.036 91.366ZM182.008 90.974C184.207 90.974 185.306 90.8434 186.681 90.8434V90.974C185.581 90.974 184.207 90.974 182.008 90.974ZM205.372 90.0593C205.647 90.0593 205.922 90.0593 205.922 90.0593C205.922 90.0593 205.647 90.0593 205.372 90.0593ZM226.263 89.1446C226.813 89.1446 227.088 89.1446 227.637 89.2753C227.088 89.406 226.538 89.406 226.263 89.1446ZM232.31 2.63884L232.585 2.50816L232.31 2.63884ZM304.328 87.9686C304.603 87.9686 304.878 87.8379 304.878 87.8379C304.603 87.9686 304.328 87.9686 304.328 87.9686ZM357.929 1.85479C356.83 1.98546 355.73 1.98547 354.356 1.98547C355.455 1.72413 356.83 1.85479 357.929 1.85479ZM418.402 90.582C418.128 90.582 417.578 90.4513 417.303 90.4513C417.578 90.4513 417.578 90.3207 417.853 90.3207C418.128 90.3207 418.677 90.3207 419.227 90.4513C418.677 90.4513 418.677 90.582 418.402 90.582ZM444.241 89.798C444.516 89.798 445.066 89.9286 445.34 90.0593C444.791 90.19 444.241 90.19 443.416 90.3207C443.141 90.19 442.867 90.19 442.867 90.0593C443.141 90.0593 443.691 89.798 444.241 89.798ZM439.568 89.798C440.118 89.798 440.942 89.6673 440.942 90.0593C440.942 90.4513 440.118 90.3207 439.568 90.4513C434.895 91.1047 430.222 90.7127 425.549 90.974C424.999 90.974 424.175 90.8434 424.45 90.582C425.274 89.9287 426.924 90.4513 427.748 90.3207C432.146 90.0593 435.72 89.9287 439.568 89.798ZM452.212 1.59347C452.212 1.72414 452.487 1.72412 452.487 1.85479L452.212 1.98547C452.212 1.8548 451.937 1.85482 451.937 1.72415C451.937 1.72415 451.938 1.72414 452.212 1.59347ZM447.539 74.3785L447.265 74.2479L447.539 74.1172C447.539 74.1172 447.814 74.1172 447.814 74.2479L447.539 74.3785ZM451.937 75.6852C451.388 76.0773 449.738 76.2079 448.639 76.3386C449.738 76.0773 451.388 75.6853 452.212 75.4239C452.212 75.5546 451.937 75.5546 451.937 75.6852ZM495.093 67.3222C495.643 67.0608 496.468 66.9301 496.468 66.5381C496.468 66.9301 496.468 67.0608 497.017 67.0608C496.193 67.0608 495.643 67.1915 495.093 67.3222ZM487.397 67.9755C488.496 67.5835 490.145 67.7142 491.795 67.7142C484.098 68.8903 476.402 69.9356 469.805 69.9356C474.203 69.2823 481.349 69.9356 487.397 67.9755ZM498.392 66.6688C498.392 65.8848 497.567 66.1461 496.743 66.2768C497.567 66.1461 498.117 66.0154 498.942 65.7541C498.667 66.1461 498.667 66.4074 498.392 66.6688ZM511.311 65.8847C511.036 65.8847 510.761 65.7541 510.486 65.7541C511.036 65.3621 511.586 65.1007 512.136 64.7087C512.136 64.8394 512.411 64.9701 512.411 65.1007C512.96 65.4928 512.136 65.7541 511.311 65.8847ZM519.557 56.4763C518.733 56.8683 518.183 56.3456 518.733 55.8229C519.008 55.3002 519.283 54.6468 519.557 54.1241C519.557 55.0388 520.932 55.9536 519.557 56.4763Z" fill="#FFEDBE"/>
<path d="M16.5307 12.178C16.8056 12.0474 18.4548 12.4394 17.6302 11.786C16.8056 11.2633 15.706 10.6099 14.6065 10.3486C14.0568 10.2179 13.7819 10.7406 13.7819 11.1326C14.3317 12.178 13.2322 12.4394 11.308 12.3087C10.4834 12.3087 9.65874 11.394 8.55923 12.3087C7.7346 13.0927 6.63508 13.7461 7.7346 14.6608C10.2085 17.1436 13.507 16.6209 17.0804 15.3142C12.6824 14.1381 12.6824 13.0928 16.5307 12.178Z" fill="#FFEDBE"/>
<path d="M4.71163 76.9919C4.98651 76.7306 4.43675 76.4693 3.61212 76.5999C3.06236 76.8613 1.68797 76.8613 2.23773 77.384C2.51261 77.776 3.06236 78.0373 3.61212 78.2987C4.16187 77.9067 4.43675 77.5146 4.71163 76.9919Z" fill="#FFEDBE"/>
<path d="M455.235 87.5766C453.861 87.9686 451.937 87.838 451.112 88.622C450.837 89.014 451.662 89.014 452.212 89.014C453.861 88.8833 455.51 88.7527 456.335 87.9686C456.335 87.5766 455.785 87.4459 455.235 87.5766Z" fill="#FFEDBE"/>
<path d="M459.634 82.4802C458.26 82.3495 457.161 82.7416 456.336 83.1336C456.886 83.2643 457.435 83.5256 457.71 83.395C458.535 83.2643 459.36 83.0029 460.184 82.8722C460.734 82.4802 459.909 82.4802 459.634 82.4802Z" fill="#FFEDBE"/>
<path d="M458.259 81.4349C458.259 81.5655 458.809 81.8269 458.809 81.8269C459.359 81.8269 459.634 81.6962 460.458 81.4349C459.909 81.1735 459.359 80.9122 459.084 80.7815C458.809 81.0428 458.534 81.1735 458.259 81.4349Z" fill="#FFEDBE"/>
<path d="M501.415 14.1382C501.14 14.2689 500.865 14.3995 500.865 14.5302C501.14 14.6609 501.14 14.6609 501.415 14.7916C501.69 14.5302 502.24 14.3995 501.415 14.1382Z" fill="#FFEDBE"/>
<path d="M10.7588 66.4075L10.4839 66.5381C10.4839 66.6688 10.7588 66.6688 10.7588 66.7995L11.0336 66.6688C11.0336 66.5381 10.7588 66.4075 10.7588 66.4075Z" fill="#FFEDBE"/>
</svg>
