<svg width="440" height="430" viewBox="0 0 440 430" fill="none" xmlns="http://www.w3.org/2000/svg">
<rect width="440" height="430" fill="white"/>
<path d="M250.987 323.35C251.352 322.62 251.352 321.525 250.987 320.794C248.43 311.302 246.604 301.809 240.76 293.412C237.473 288.666 237.108 284.284 240.395 279.538C242.221 276.617 243.317 273.331 245.143 269.68C237.839 269.68 234.186 264.934 229.804 260.553C228.708 259.458 227.247 258.728 225.786 258.362C220.673 256.902 215.56 255.807 210.447 255.077C208.986 254.711 208.255 253.981 207.525 252.521C206.064 248.87 204.238 245.219 202.412 241.933H202.046C202.046 244.124 202.046 246.679 202.046 248.87C199.855 249.6 198.759 248.87 198.029 247.409C193.281 240.838 188.168 234.266 183.42 227.694C182.689 226.599 182.324 225.503 182.324 224.043C182.324 218.932 182.324 214.185 182.324 209.074C182.324 207.979 181.959 206.518 181.228 205.788C177.941 200.312 174.654 195.2 171.367 189.724C170.272 187.533 168.811 187.168 166.619 187.533C158.219 188.993 150.184 190.819 141.784 190.819C137.036 190.819 133.749 188.993 130.097 186.073C132.653 183.882 135.21 182.057 137.767 179.866C135.575 180.231 133.384 180.596 131.192 180.961C130.462 180.961 129.732 181.691 129.366 182.422C122.792 193.74 118.41 205.423 115.853 218.201C114.757 223.678 114.392 229.154 113.662 234.996C113.662 239.012 113.662 243.393 113.662 247.409C114.392 252.156 114.757 256.537 115.488 261.283C122.792 298.888 143.245 327.001 176.846 345.621C191.09 353.653 206.794 357.67 223.23 358.765C223.96 358.765 224.325 359.13 225.056 359.13C229.438 359.13 233.821 359.13 237.839 359.13C240.76 358.765 243.682 358.4 246.604 358.035C246.604 356.939 246.239 355.479 246.239 354.384C245.874 348.907 244.778 343.796 246.604 338.319C248.795 333.573 249.891 328.462 250.987 323.35Z" fill="#C70039"/>
<path d="M286.414 173.66C284.953 172.199 283.857 170.739 283.127 168.548C281.3 161.611 278.379 155.77 272.535 151.023C268.152 147.372 263.039 147.737 258.656 146.277C257.926 149.563 258.291 151.754 260.848 153.944C263.404 156.135 265.961 158.69 268.152 161.246C270.344 163.437 272.17 165.992 273.996 168.183C270.344 171.469 266.691 171.834 262.309 169.643C261.213 169.278 260.482 168.548 259.387 168.548C256.465 167.818 255.369 166.358 256.1 163.437C256.1 162.707 256.1 161.246 255.369 160.881C252.447 159.421 249.526 158.325 246.604 157.23C245.873 160.881 244.778 164.167 244.413 167.818C244.047 170.739 242.952 171.834 240.03 172.199C238.204 172.564 235.282 172.564 234.551 173.66C233.821 175.12 234.186 177.676 234.551 179.866C234.551 180.596 235.282 181.327 235.647 181.692C239.299 182.422 243.317 183.152 247.334 183.882C248.065 179.866 248.795 175.85 249.526 171.469C253.178 172.199 257.195 172.199 260.483 173.66C263.77 175.12 266.691 176.215 270.344 175.85C271.805 175.85 272.9 176.215 273.631 177.676C276.187 183.882 279.839 188.994 284.953 193.375C286.779 194.835 288.24 196.661 289.701 198.121C292.622 201.042 292.622 202.137 290.431 206.519C283.127 203.598 276.918 206.153 269.978 209.439C263.039 213.09 257.195 217.106 252.447 223.678C249.16 228.059 244.778 232.076 244.047 238.282C244.047 238.647 243.317 239.378 242.952 239.378C241.126 239.378 238.934 239.012 237.108 238.647C234.917 237.917 232.725 236.822 230.534 235.727C229.803 235.361 229.073 235.361 228.708 235.727C225.786 236.822 223.229 238.282 220.308 239.743C221.038 243.029 221.768 245.949 222.499 248.87C222.499 249.235 222.864 249.235 222.864 249.6C225.056 244.489 229.073 244.124 233.456 244.854C233.456 247.775 233.091 250.331 233.091 253.616C237.108 253.982 240.03 255.807 242.221 259.093C243.682 261.649 245.873 262.014 248.43 260.918C250.621 260.188 253.178 259.093 255.369 259.458C260.848 260.188 266.691 261.649 272.17 262.744C275.457 263.474 278.744 263.839 282.031 264.935C283.127 265.3 284.587 265.665 285.318 266.76C291.161 274.427 298.101 280.269 306.501 284.285C308.692 285.38 310.884 286.84 313.44 288.301C314.171 288.666 314.536 289.031 315.266 289.396C310.884 297.793 306.866 305.826 302.484 313.858C302.118 314.588 301.388 314.953 300.657 315.318C297.005 317.144 293.353 318.604 289.701 320.43C288.605 320.795 287.874 321.89 287.509 322.985C286.048 326.636 284.953 329.922 283.492 333.573C283.126 334.669 282.031 336.129 280.935 336.859C275.822 340.51 271.074 343.796 265.596 347.082C261.578 349.273 261.578 353.289 260.483 356.94C260.848 356.94 261.213 356.94 261.213 356.94C261.578 356.94 261.943 356.94 261.943 356.575C283.127 351.098 301.023 340.51 316.362 325.176C333.528 307.651 344.484 286.841 348.867 262.379C349.598 257.267 349.963 252.156 350.693 247.41C350.693 243.759 350.693 240.473 350.693 236.822C350.693 236.092 350.328 235.361 350.328 234.631C348.867 214.916 343.024 196.661 332.797 180.231C330.971 176.945 330.971 176.945 327.319 177.676C326.954 177.676 326.588 177.676 326.223 177.676C321.11 178.041 315.632 178.771 310.518 179.136C308.692 179.136 307.962 179.866 307.231 181.327C306.136 183.517 304.31 185.708 302.849 188.264C300.657 186.803 298.466 185.708 297.005 184.247C292.988 179.866 289.701 176.58 286.414 173.66Z" fill="#C70039"/>
<path d="M232.725 111.593C253.543 62.3044 286.414 62.6695 286.414 62.6695C250.256 72.8923 237.473 117.435 237.473 117.435C285.683 125.467 300.292 56.8279 300.292 56.8279C300.292 56.8279 264.135 50.9864 244.047 64.495C223.595 77.6386 232.725 111.593 232.725 111.593Z" fill="#C70039"/>
<path d="M176.481 106.116C194.012 121.815 225.787 114.513 225.787 114.513C227.248 115.609 229.074 118.894 230.535 122.545C228.709 122.545 226.882 122.545 225.056 122.545C221.039 122.911 217.021 123.641 213.369 124.006C191.456 127.657 171.733 136.784 154.933 151.753C150.185 155.769 146.167 160.516 141.785 164.897C141.785 165.262 142.15 165.262 142.15 165.627C142.88 165.262 143.611 165.262 144.341 164.897C152.742 162.341 160.777 160.151 169.542 159.42C175.751 159.055 181.96 157.595 187.073 153.944C188.534 152.849 189.995 153.214 191.456 153.579C194.377 154.309 197.664 155.769 200.951 155.769C206.065 156.135 210.813 155.404 215.926 155.039C216.656 155.039 217.752 154.309 218.482 153.579C219.943 151.388 221.404 149.198 222.865 147.007C223.23 146.277 224.326 145.912 225.056 145.912C227.978 146.277 231.265 147.007 234.187 146.642C240.031 146.277 245.874 145.547 251.718 144.817C252.448 144.817 253.544 144.086 254.274 143.721C256.466 141.531 258.657 139.34 260.849 137.149C264.866 133.133 269.614 132.403 275.092 133.864C277.284 134.594 279.84 134.229 282.397 134.229C282.397 133.864 282.397 133.864 282.397 133.498C273.266 129.117 263.405 126.196 253.179 124.371C248.796 123.641 244.413 123.276 240.031 122.545C238.205 122.545 236.378 122.545 234.552 122.545C205.334 56.0973 138.498 47.3349 138.498 47.3349C184.151 42.2235 226.517 93.3374 226.517 93.3374C224.691 83.8448 231.265 70.3362 231.265 70.3362C186.342 9.7296 123.158 48.0651 123.158 48.0651C143.976 57.5577 158.95 90.0515 176.481 106.116ZM202.047 145.912C201.682 145.912 200.951 145.547 200.586 145.547C198.395 144.451 196.203 142.991 194.012 141.531C196.934 139.34 199.491 137.514 202.047 135.324H202.412C205.699 137.514 208.986 137.149 212.273 135.689C213.734 134.959 214.465 135.324 215.195 136.784C215.926 138.245 217.021 139.705 218.117 141.531C212.273 143.356 207.16 144.451 202.047 145.912ZM248.796 128.022C249.161 127.657 249.892 127.657 250.622 128.022C252.814 129.117 255.005 130.578 257.562 132.038C253.909 134.959 250.622 138.245 246.605 140.07C243.683 141.531 239.665 141.531 236.013 141.531C234.187 141.531 232.726 139.705 230.535 138.61C232.726 137.515 234.917 136.054 236.744 134.959C237.109 134.959 237.474 134.594 237.839 134.229C241.492 132.038 245.144 130.213 248.796 128.022Z" fill="#C70039"/>
<path d="M341.198 168.548C339.372 165.992 335.72 167.087 335.72 170.008C351.059 192.644 359.459 220.392 357.268 249.965C352.52 313.127 300.658 363.146 237.474 365.702C166.255 368.622 107.088 311.302 107.088 240.472C107.088 214.185 113.662 192.279 127.541 172.199C127.541 169.278 123.523 168.183 122.062 170.738C107.818 193.009 100.514 219.662 101.975 248.14C105.627 313.127 157.489 366.432 222.499 371.178C299.197 377.02 363.477 316.048 363.477 240.838C363.112 214.185 355.077 189.358 341.198 168.548Z" fill="#C70039"/>
</svg>
