<svg width="53" height="54" viewBox="0 0 53 54" fill="none" xmlns="http://www.w3.org/2000/svg">
<path d="M45.0716 6.59729H7.4497C6.54493 6.59729 5.81396 7.32826 5.81396 8.23302V45.8549C5.81396 46.7597 6.54493 47.4906 7.4497 47.4906H45.0716C45.9763 47.4906 46.7073 46.7597 46.7073 45.8549V8.23302C46.7073 7.32826 45.9763 6.59729 45.0716 6.59729ZM40.3484 18.533H37.082C34.5211 18.533 34.0253 19.7496 34.0253 21.5387V25.4798H40.1388L39.3414 31.6496H34.0253V47.4906H27.651V31.6547H22.3195V25.4798H27.651V20.9304C27.651 15.6501 30.8765 12.7722 35.5894 12.7722C37.8488 12.7722 39.7861 12.9409 40.3535 13.0175V18.533H40.3484Z" fill="#C70039"/>
</svg>
