<svg width="53" height="54" viewBox="0 0 53 54" fill="none" xmlns="http://www.w3.org/2000/svg">
<path d="M45.0664 6.59729H7.44457C6.53981 6.59729 5.80884 7.32826 5.80884 8.23302V45.8549C5.80884 46.7597 6.53981 47.4906 7.44457 47.4906H45.0664C45.9712 47.4906 46.7022 46.7597 46.7022 45.8549V8.23302C46.7022 7.32826 45.9712 6.59729 45.0664 6.59729ZM17.9388 41.4435H11.8713V21.9272H17.9388V41.4435ZM14.9076 19.2589C14.212 19.2589 13.5321 19.0526 12.9538 18.6662C12.3754 18.2798 11.9247 17.7305 11.6585 17.0879C11.3923 16.4453 11.3227 15.7382 11.4584 15.056C11.5941 14.3738 11.929 13.7471 12.4208 13.2553C12.9127 12.7635 13.5393 12.4285 14.2215 12.2928C14.9037 12.1571 15.6108 12.2268 16.2534 12.4929C16.8961 12.7591 17.4453 13.2099 17.8317 13.7882C18.2182 14.3666 18.4244 15.0465 18.4244 15.7421C18.4193 17.6845 16.8449 19.2589 14.9076 19.2589ZM40.6551 41.4435H34.5926V31.9512C34.5926 29.6867 34.5517 26.7782 31.4387 26.7782C28.2848 26.7782 27.7992 29.242 27.7992 31.7876V41.4435H21.7419V21.9272H27.559V24.5955H27.6408C28.4484 23.062 30.4266 21.4416 33.3812 21.4416C39.5254 21.4416 40.6551 25.4849 40.6551 30.7397V41.4435Z" fill="#C70039"/>
</svg>
