<svg width="53" height="54" viewBox="0 0 53 54" fill="none" xmlns="http://www.w3.org/2000/svg">
<path d="M47.5315 13.8713C45.9673 14.546 44.2651 15.0316 42.5118 15.2208C44.3322 14.1393 45.6953 12.4308 46.3456 10.4158C44.6374 11.4319 42.7662 12.1445 40.8148 12.5218C39.9992 11.6499 39.0127 10.9553 37.917 10.4813C36.8212 10.0073 35.6395 9.76399 34.4456 9.76662C29.6151 9.76662 25.7302 13.6822 25.7302 18.4871C25.7302 19.1619 25.812 19.8366 25.9449 20.4858C18.7119 20.1075 12.261 16.652 7.9723 11.3615C7.19086 12.6962 6.78136 14.216 6.7864 15.7626C6.7864 18.7887 8.32501 21.457 10.6713 23.0263C9.28858 22.9718 7.93827 22.5918 6.73017 21.9171V22.0244C6.73017 26.262 9.72561 29.7737 13.7178 30.5813C12.9682 30.776 12.1971 30.8756 11.4227 30.8778C10.8553 30.8778 10.3186 30.8216 9.77672 30.7449C10.8808 34.2004 14.0961 36.7102 17.9247 36.792C14.9293 39.1383 11.1773 40.5184 7.10332 40.5184C6.37235 40.5184 5.69761 40.4929 4.99731 40.4111C8.86173 42.8902 13.4469 44.3215 18.3848 44.3215C34.415 44.3215 43.1866 31.0414 43.1866 19.5146C43.1866 19.1363 43.1866 18.758 43.161 18.3798C44.8581 17.1376 46.3456 15.599 47.5315 13.8713Z" fill="#C70039"/>
</svg>
